<svg width="109" height="112" viewBox="0 0 109 112" fill="none" xmlns="http://www.w3.org/2000/svg">
<path d="M79.3 41.5C69.3 41.5 58.5 52.7 54 57.9C49.5 52.7 38.7 41.5 28.7 41.5C15.6 41.5 5 50.6 5 61.9C5 73.1 15.6 82.3 28.7 82.3C38.7 82.3 49.5 71.1 54 65.9C58.5 71.1 69.3 82.3 79.3 82.3C92.4 82.3 103 73.2 103 61.9C103 50.7 92.4 41.5 79.3 41.5ZM28.7 77.2C18.4 77.2 10 70.3 10 61.8C10 53.3 18.4 46.4 28.7 46.4C36.3 46.4 46.3 56.4 50.8 61.8C46.2 67.3 36.2 77.2 28.7 77.2ZM79.3 77.2C71.7 77.2 61.7 67.2 57.2 61.8C61.8 56.4 71.7 46.4 79.3 46.4C89.6 46.4 98 53.3 98 61.8C98 70.3 89.6 77.2 79.3 77.2Z" fill="#E22D2D"/>
<path d="M15.488 31.16L13.92 24.92H6.272L4.576 31L0.48 30.68L3.296 22.904L7.584 9.144L13.312 8.728L17.44 22.424L20.096 30.456L15.488 31.16ZM10.432 12.888H10.016L7.264 21.528H12.96L10.432 12.888ZM23.1225 31L23.5065 23.224L23.1225 9.56L27.6665 8.76L27.2185 22.68L27.4425 27.864L34.0025 27.352L33.6505 31H23.1225ZM47.9795 12.344H41.1635L40.9715 18.232H47.0835L46.7315 21.624H40.8755L40.8435 22.68L41.2275 31H36.7475L37.1315 23.224L36.7475 8.92H48.3315L47.9795 12.344ZM67.8638 8.76L67.4158 22.68L67.7998 31H63.3198L63.7038 23.224L63.6398 21.528H55.0318L54.9998 22.68L55.3838 31H50.9038L51.2878 23.224L50.9038 9.56L55.4478 8.76L55.1278 18.136H63.5438L63.3198 9.56L67.8638 8.76ZM72.9975 31L73.3815 23.224L72.9975 8.92H84.9975L84.6455 12.344H77.4455L77.2535 18.008H83.6535L83.3015 21.4H77.1255L77.0935 22.68L77.3175 27.608H85.0615L84.7095 31H72.9975ZM105.676 8.856L105.26 22.68L105.612 30.296L101.836 31.096L92.2995 15.672V22.68L92.7475 31H88.7475L89.1315 23.224L88.7475 9.016L92.5875 8.824L102.092 24.472L101.772 9.336L105.676 8.856Z" fill="#E22D2D"/>
</svg>
